<?xml version="1.0" encoding="UTF-8" standalone="no"?>
<!DOCTYPE svg PUBLIC "-//W3C//DTD SVG 1.1//EN" "http://www.w3.org/Graphics/SVG/1.1/DTD/svg11.dtd">
<svg width="100%" height="100%" viewBox="0 0 1000 1000" version="1.1" xmlns="http://www.w3.org/2000/svg" xmlns:xlink="http://www.w3.org/1999/xlink" xml:space="preserve" xmlns:serif="http://www.serif.com/" style="fill-rule:evenodd;clip-rule:evenodd;stroke-linejoin:round;stroke-miterlimit:2;">
    <g transform="matrix(-0.316206,-0.547684,0.607587,-0.350791,531.553555,810.027854)">
        <path d="M449.5,182C550.458,350.471 564.419,463.058 542.876,574.375C530.877,636.373 486.193,688.403 416.376,688.403C346.559,688.403 289.876,637.309 289.876,574.375C289.876,529.664 318.401,487.58 355.07,452.758C434.444,377.382 495.462,327.455 449.5,182Z" style="fill:rgb(6,50,104);"/>
    </g>
    <g transform="matrix(0.316206,-0.547684,0.607587,0.350791,247.28478,682.340107)">
        <path d="M449.5,182C550.458,350.471 564.419,463.058 542.876,574.375C530.877,636.373 486.193,688.403 416.376,688.403C346.559,688.403 289.876,637.309 289.876,574.375C289.876,529.664 318.401,487.58 355.07,452.758C434.444,377.382 495.462,327.455 449.5,182Z" style="fill:rgb(6,50,104);"/>
    </g>
    <g transform="matrix(0.632411,-0,0,0.701581,215.868442,372.312253)">
        <path d="M449.5,182C550.458,350.471 564.419,463.058 542.876,574.375C530.877,636.373 486.193,688.403 416.376,688.403C346.559,688.403 289.876,637.309 289.876,574.375C289.876,529.664 318.401,487.58 355.07,452.758C434.444,377.382 495.462,327.455 449.5,182Z" style="fill:rgb(6,50,104);"/>
    </g>
    <g transform="matrix(0.316206,0.547684,-0.607587,0.350791,468.446445,189.972146)">
        <path d="M449.5,182C550.458,350.471 564.419,463.058 542.876,574.375C530.877,636.373 486.193,688.403 416.376,688.403C346.559,688.403 289.876,637.309 289.876,574.375C289.876,529.664 318.401,487.58 355.07,452.758C434.444,377.382 495.462,327.455 449.5,182Z" style="fill:rgb(6,50,104);"/>
    </g>
    <g transform="matrix(-0.316206,0.547684,-0.607587,-0.350791,752.71522,317.659893)">
        <path d="M449.5,182C550.458,350.471 564.419,463.058 542.876,574.375C530.877,636.373 486.193,688.403 416.376,688.403C346.559,688.403 289.876,637.309 289.876,574.375C289.876,529.664 318.401,487.58 355.07,452.758C434.444,377.382 495.462,327.455 449.5,182Z" style="fill:rgb(6,50,104);"/>
    </g>
    <g transform="matrix(-0.632411,0,0,-0.701581,785.328314,627.687747)">
        <path d="M449.5,182C550.458,350.471 564.419,463.058 542.876,574.375C530.877,636.373 486.193,688.403 416.376,688.403C346.559,688.403 289.876,637.309 289.876,574.375C289.876,529.664 318.401,487.58 355.07,452.758C434.444,377.382 495.462,327.455 449.5,182Z" style="fill:rgb(6,50,104);"/>
    </g>
</svg>
